Coordinates
version=1
nRows=24
nColumns=24
inDegrees=yes

Units are S.I. units (second, meters, Newtons, ...)
Angles are in degrees.

endheader
time	pelvis_tilt	pelvis_list	pelvis_rotation	pelvis_tx	pelvis_ty	pelvis_tz	hip_flexion_r	hip_adduction_r	hip_rotation_r	knee_angle_r	ankle_angle_r	subtalar_angle_r	mtp_angle_r	hip_flexion_l	hip_adduction_l	hip_rotation_l	knee_angle_l	ankle_angle_l	subtalar_angle_l	mtp_angle_l	lumbar_extension	lumbar_bending	lumbar_rotation
      4.41500000	     -8.41658297	     -2.35362051	     10.06701594	     -1.82723636	     -0.02230122	     -0.36053608	     32.05176918	     -1.80734534	     -8.47877605	    -10.63845616	     -1.47196515	      6.69249653	     13.33684980	     -4.90695795	     -0.40133058	     18.17692424	    -16.38474373	      7.00687730	      2.87393382	     17.67123136	      3.52697870	     -0.11595104	     -9.46947332
      4.42000000	     -8.43561980	     -2.49270296	     10.17968982	     -1.82075744	     -0.02319168	     -0.36005115	     32.03062433	     -1.70545671	     -8.91385081	    -11.18295722	     -1.93381765	      6.68647607	     13.84081665	     -4.91097735	     -0.63605057	     17.96072974	    -17.07239732	      7.01151818	      3.66630206	     17.79074189	      3.76523104	      0.04894261	     -9.53119602
      4.42500000	     -8.54100082	     -2.54265062	     10.16068410	     -1.81433373	     -0.02415797	     -0.35939836	     32.11931831	     -1.63037582	     -9.04137695	    -11.66350576	     -3.00154256	      6.32270021	     15.74217257	     -4.81949889	     -0.75917663	     17.50507766	    -17.75146100	      6.72851126	      4.37044544	     18.51027558	      4.06870076	      0.12591735	     -9.41128782
      4.43000000	     -8.57357625	     -2.72161875	     10.22416849	     -1.80790141	     -0.02494606	     -0.35879073	     32.16841749	     -1.46570957	     -9.39700882	    -12.27468597	     -3.57164763	      6.28705615	     16.11330563	     -4.74971800	     -1.05067593	     17.15852699	    -18.48466152	      6.56550411	      5.27242844	     19.06310298	      4.31616222	      0.33340654	     -9.41493973
      4.43500000	     -8.65704668	     -2.99626432	     10.21991807	     -1.80133894	     -0.02570298	     -0.35815022	     32.27502874	     -1.17306272	     -9.60781625	    -12.85911292	     -4.19295793	      6.19324151	     16.36855868	     -4.59316911	     -1.42951748	     16.70662981	    -19.26209396	      6.31806865	      6.11092745	     19.62076807	      4.66272349	      0.65619276	     -9.34186636
      4.44000000	     -8.74142784	     -3.22809847	     10.17789072	     -1.79497281	     -0.02638190	     -0.35735648	     32.42725431	     -0.88293505	     -9.62041802	    -13.49296637	     -4.89216106	      5.94838362	     16.69981553	     -4.36960292	     -1.78142788	     16.06052047	    -20.11786240	      5.99028703	      7.15568440	     20.42755514	      4.95963666	      0.92564900	     -9.22815724
      4.44500000	     -8.85124230	     -3.45256122	     10.06000079	     -1.78863872	     -0.02696442	     -0.35643341	     32.60822464	     -0.52323745	     -9.25872838	    -14.07138489	     -5.97259279	      5.24570690	     17.58132618	     -4.13803951	     -2.12316398	     15.43257369	    -20.86946766	      5.19122776	      7.79673245	     22.20754479	      5.26795502	      1.18365406	     -9.03086904
      4.45000000	     -8.90766098	     -3.76418414	      9.98124956	     -1.78228570	     -0.02737847	     -0.35557125	     32.76109731	     -0.09692760	     -9.05968831	    -14.74495167	     -6.62654809	      4.91254789	     17.75404690	     -3.87286092	     -2.58027064	     14.72991758	    -21.78866161	      4.63556059	      8.83214299	     23.21035393	      5.54354906	      1.54620928	     -8.90438821
      4.45500000	     -8.96222267	     -4.07936803	      9.86985461	     -1.77594723	     -0.02766861	     -0.35465246	     32.92106193	      0.37828154	     -8.67282056	    -15.44992070	     -7.19511313	      4.50187245	     17.67806148	     -3.57231489	     -3.05436910	     13.94684125	    -22.75602800	      3.96742924	      9.93600334	     24.19673184	      5.80979392	      1.91334663	     -8.77334540
      4.46000000	     -9.01760498	     -4.41800459	      9.71029213	     -1.76958083	     -0.02787541	     -0.35366502	     33.08779926	      0.93421472	     -8.11642475	    -16.17412623	     -7.71412230	      3.93874261	     17.40701633	     -3.24524340	     -3.56419502	     13.11060076	    -23.74489161	      3.13124303	     10.97995377	     25.40899623	      6.07942609	      2.31291087	     -8.57941709
      4.46500000	     -9.03874848	     -4.75873402	      9.54883433	     -1.76326182	     -0.02800761	     -0.35267683	     33.22352014	      1.51972395	     -7.46244061	    -16.93261364	     -8.08401861	      3.35869807	     17.02341742	     -2.89956818	     -4.09352903	     12.24817681	    -24.81945982	      2.24274728	     12.08268852	     26.60690535	      6.29996710	      2.72517213	     -8.39001414
      4.47000000	     -9.05922628	     -5.09417925	      9.33364595	     -1.75680409	     -0.02797517	     -0.35161799	     33.33467930	      2.15846643	     -6.78653130	    -17.66856047	     -8.42775606	      2.61523397	     16.27081635	     -2.57235624	     -4.63546735	     11.33649265	    -25.82317008	      0.96299268	     12.99803364	     28.21658606	      6.53605395	      3.13360683	     -8.12924649
      4.47500000	     -9.05118766	     -5.43046746	      9.14297149	     -1.75027866	     -0.02788933	     -0.35061074	     33.37599039	      2.80483002	     -6.03602631	    -18.37750852	     -8.57891314	      1.94481072	     15.56678649	     -2.22923219	     -5.20109388	     10.43047815	    -26.91348972	     -0.31203255	     14.07241156	     29.55356862	      6.75764380	      3.54577923	     -7.97058009
      4.48000000	     -8.95236586	     -5.67813974	      8.95005054	     -1.74384673	     -0.02763571	     -0.34961244	     33.31744463	      3.38118266	     -5.37077463	    -19.13919518	     -8.38913684	      1.48591834	     14.40866845	     -1.97909000	     -5.69952342	      9.53195909	    -27.94693339	     -1.99751414	     14.95896648	     31.57944543	      6.83704574	      3.87909187	     -7.76224731
      4.48500000	     -8.88276504	     -5.94109759	      8.76134021	     -1.73731955	     -0.02736970	     -0.34861859	     33.23175650	      3.98506136	     -4.69885185	    -19.79253342	     -8.31089131	      0.79876384	     13.43555063	     -1.65288623	     -6.22185403	      8.65090316	    -29.08333035	     -3.64973310	     15.94225983	     32.96390449	      6.97079649	      4.22078457	     -7.58341268
      4.49000000	     -8.83244488	     -6.19122211	      8.58897311	     -1.73081357	     -0.02709236	     -0.34765399	     33.11420224	      4.57649229	     -4.01932005	    -20.34163177	     -8.38625973	     -0.08146902	     12.79485988	     -1.25415768	     -6.72863181	      7.84163030	    -30.31857547	     -5.31697915	     16.92264615	     33.83203363	      7.12159746	      4.54390584	     -7.44632641
      4.49500000	     -8.70099955	     -6.37786952	      8.42424912	     -1.72426635	     -0.02667995	     -0.34671938	     32.86919036	      5.10008271	     -3.49940358	    -20.87476279	     -8.09629176	     -0.65334652	     11.89538809	     -0.96098948	     -7.19686189	      7.06260080	    -31.44522855	     -7.39883098	     17.73397330	     35.42977208	      7.18081988	      4.80683263	     -7.28551579
      4.50000000	     -8.64214573	     -6.57508383	      8.27202100	     -1.71769600	     -0.02634141	     -0.34581057	     32.62986262	      5.62755444	     -2.90756578	    -21.26369633	     -7.99349445	     -1.42712877	     11.46084185	     -0.52808440	     -7.65869578	      6.38102743	    -32.72506467	     -9.30032502	     18.61516848	     35.97090240	      7.33532233	      5.06635824	     -7.19852304
      4.50500000	     -8.55917624	     -6.77957195	      8.10353273	     -1.71127142	     -0.02597404	     -0.34491284	     32.34434236	      6.14985086	     -2.44105270	    -21.59593173	     -7.85349883	     -2.00344473	     11.15256471	     -0.06951715	     -8.13626163	      5.71025977	    -34.06040473	    -11.29177494	     19.38251813	     36.47275795	      7.43242581	      5.34748968	     -7.06360747
      4.51000000	     -8.47860991	     -6.93093271	      7.98954948	     -1.70490689	     -0.02554904	     -0.34409282	     31.99784846	      6.59770203	     -1.99011952	    -21.83046556	     -7.68883727	     -2.69175696	     10.79325373	      0.41645085	     -8.53410655	      5.19831986	    -35.37866601	    -13.47963561	     19.83420547	     36.99282607	      7.52458669	      5.56288903	     -7.01473764
      4.51500000	     -8.39903750	     -7.04662556	      7.89826198	     -1.69859241	     -0.02512413	     -0.34327177	     31.61317185	      6.98259258	     -1.64818811	    -22.00641432	     -7.37385420	     -3.22405163	     10.55147967	      0.92871872	     -8.88845572	      4.78425572	    -36.70364312	    -15.69403797	     20.21302883	     37.41839935	      7.61355304	      5.72789763	     -6.97636985
      4.52000000	     -8.30025202	     -7.19160796	      7.85401986	     -1.69246889	     -0.02469450	     -0.34260431	     31.19193900	      7.33386362	     -1.47478686	    -22.11836627	     -7.02467549	     -3.51463224	     10.60428090	      1.50813830	     -9.25062317	      4.45991845	    -38.15879305	    -17.71296165	     20.41533256	     37.15497141	      7.65587834	      5.92850373	     -7.00837390
      4.52500000	     -8.24795274	     -7.33895613	      7.78422852	     -1.68639448	     -0.02428135	     -0.34186995	     30.78031528	      7.69808545	     -1.26689727	    -22.14680521	     -6.75338414	     -3.90621136	     10.62684459	      2.15560836	     -9.59901416	      4.18383808	    -39.60972066	    -19.72796062	     20.45000501	     36.84310900	      7.74898028	      6.13160897	     -6.99863985
      4.53000000	     -8.21208069	     -7.49431576	      7.71594035	     -1.68041587	     -0.02388276	     -0.34108460	     30.36427539	      8.06092185	     -1.09243250	    -22.12200844	     -6.47842989	     -4.26212995	     10.69471787	      2.85744690	     -9.94424621	      3.96004591	    -41.07918155	    -21.67732253	     20.31319521	     36.44785980	      7.84337175	      6.32681584	     -6.98815022
